<svg width="513" height="648" viewBox="0 0 513 648" fill="none" xmlns="http://www.w3.org/2000/svg">
<rect width="513" height="648" fill="#FEEAE2"/>
<path d="M373.428 207.92L366.777 207.077L366.182 207.001C355.809 205.693 345.867 202.054 337.1 196.357L337.023 196.307L330.949 192.366C332.012 190.101 333.128 187.862 334.299 185.65C334.381 185.495 334.462 185.34 334.545 185.187C336.397 181.783 340.35 180.104 344.084 181.136C344.301 181.196 344.516 181.265 344.73 181.343L355.191 185.172L370.015 190.598C373.896 192.016 376.15 196.065 375.311 200.111C375.217 200.567 375.11 201.021 375.009 201.476C374.53 203.636 374.002 205.785 373.428 207.92Z" fill="#FF999A"/>
<path d="M357.082 244.39C354.956 245.592 352.41 245.801 350.117 244.96L346.126 243.5L336.215 239.872L327.422 236.654L324.885 235.725C320.998 234.303 318.744 230.242 319.593 226.191C319.745 225.468 319.918 224.75 320.081 224.029C320.493 222.204 320.939 220.387 321.418 218.577C322.335 215.115 323.37 211.687 324.526 208.294C325.69 204.873 326.972 201.496 328.373 198.163C329.192 196.213 330.051 194.281 330.949 192.366L335.464 195.296L337.099 196.357C338.178 197.057 339.273 197.726 340.385 198.363C346.698 201.987 353.544 204.59 360.669 206.078C362.543 206.47 364.433 206.78 366.332 207.021L373.427 207.921C372.88 209.965 372.292 211.996 371.663 214.015C370.588 217.464 369.393 220.872 368.08 224.239C366.778 227.574 365.362 230.862 363.83 234.104C362.912 236.047 361.953 237.972 360.953 239.877C360.739 240.285 360.529 240.696 360.31 241.101C359.566 242.48 358.446 243.62 357.082 244.39V244.39Z" fill="#FE7578"/>
<mask id="mask0_1_2007" style="mask-type:luminance" maskUnits="userSpaceOnUse" x="319" y="192" width="55" height="54">
<path fill-rule="evenodd" clip-rule="evenodd" d="M357.082 244.39C354.956 245.592 352.41 245.801 350.117 244.96L346.126 243.5L336.215 239.872L327.422 236.654L324.885 235.725C320.998 234.303 318.744 230.242 319.593 226.191C319.745 225.468 319.918 224.75 320.081 224.029C320.493 222.204 320.939 220.387 321.418 218.577C322.335 215.115 323.37 211.687 324.526 208.294C325.69 204.873 326.972 201.496 328.373 198.163C329.192 196.213 330.051 194.281 330.949 192.366L335.464 195.296L337.099 196.357C338.178 197.057 339.273 197.726 340.385 198.363C346.698 201.987 353.544 204.59 360.669 206.078C362.543 206.47 364.433 206.78 366.332 207.021L373.427 207.921C372.88 209.965 372.292 211.996 371.663 214.015C370.588 217.464 369.393 220.872 368.08 224.239C366.778 227.574 365.362 230.862 363.83 234.104C362.912 236.047 361.953 237.972 360.953 239.877C360.739 240.285 360.529 240.696 360.31 241.101C359.566 242.48 358.446 243.62 357.082 244.39V244.39Z" fill="white"/>
</mask>
<g mask="url(#mask0_1_2007)">
<path d="M317.729 231.05C360.932 245.23 361.911 234.537 367.314 226.405C372.717 218.273 369.418 245.861 369.418 245.861C369.418 245.861 357.421 253.592 356.57 253.746C355.719 253.9 318.166 240.864 318.166 240.864L314.926 239.516" fill="#E55A61"/>
<path d="M356.2 213.444C353.58 214.662 350.565 214.707 347.911 213.566C344.221 211.986 341.806 208.383 341.747 204.369C341.688 200.356 343.996 196.683 347.638 194.996C348.451 194.618 349.311 194.349 350.195 194.196C355.222 193.328 360.113 196.319 361.632 201.188C363.151 206.058 360.828 211.299 356.2 213.444V213.444Z" fill="#E55A61"/>
</g>
<path d="M355.781 211.288C353.161 212.507 350.146 212.551 347.492 211.41C343.802 209.83 341.387 206.227 341.328 202.213C341.269 198.2 343.577 194.527 347.219 192.84C348.032 192.462 348.892 192.193 349.776 192.04C354.803 191.173 359.694 194.163 361.213 199.033C362.732 203.902 360.409 209.144 355.781 211.288V211.288Z" fill="#FFC562"/>
<path d="M354.527 208.586C352.674 209.447 350.543 209.479 348.666 208.672C346.324 207.67 344.688 205.503 344.364 202.977C344.041 200.45 345.078 197.941 347.092 196.382C349.275 194.685 352.237 194.391 354.711 195.623C357.185 196.856 358.734 199.398 358.695 202.162C358.656 204.926 357.036 207.423 354.528 208.586H354.527Z" fill="#FF9763"/>
<path d="M363.651 194.739C364.514 195.075 365.06 195.932 365 196.856C365.001 197.027 365.139 197.166 365.31 197.168C365.481 197.164 365.618 197.026 365.621 196.856C365.681 195.652 364.948 194.549 363.814 194.138C363.649 194.094 363.478 194.191 363.431 194.356C363.389 194.521 363.485 194.69 363.649 194.739H363.651Z" fill="#FE7578"/>
<path d="M331.875 225.327C332.714 227.209 334.365 228.606 336.359 229.122C336.523 229.161 336.687 229.063 336.732 228.902C336.776 228.74 336.685 228.572 336.525 228.522C334.688 228.045 333.172 226.752 332.412 225.013C332.325 224.866 332.135 224.817 331.987 224.902C331.842 224.992 331.793 225.179 331.876 225.328L331.875 225.327Z" fill="#E55A61"/>
<path d="M399.975 325.343L371.568 342.151L367.006 314.912L395.415 298.104L399.975 325.343V325.343Z" fill="#F0F3FC"/>
<path d="M399.975 325.343L421.371 341.595L392.961 358.406L371.568 342.151L399.975 325.343V325.343Z" fill="#97CC64"/>
<mask id="mask1_1_2007" style="mask-type:luminance" maskUnits="userSpaceOnUse" x="371" y="325" width="51" height="34">
<path fill-rule="evenodd" clip-rule="evenodd" d="M399.975 325.343L421.371 341.595L392.961 358.406L371.568 342.151L399.975 325.343V325.343Z" fill="white"/>
</mask>
<g mask="url(#mask1_1_2007)">
<path d="M360.018 358.605H432.92" stroke="white" stroke-width="0.6"/>
<path d="M360.018 355.816H432.92" stroke="white" stroke-width="0.6"/>
<path d="M360.018 353.028H432.92" stroke="white" stroke-width="0.6"/>
<path d="M360.018 350.239H432.92" stroke="white" stroke-width="0.6"/>
<path d="M360.018 347.451H432.92" stroke="white" stroke-width="0.6"/>
<path d="M360.018 344.662H432.92" stroke="white" stroke-width="0.6"/>
<path d="M360.018 341.874H432.92" stroke="white" stroke-width="0.6"/>
<path d="M360.018 339.085H432.92" stroke="white" stroke-width="0.6"/>
<path d="M360.018 336.297H432.92" stroke="white" stroke-width="0.6"/>
<path d="M360.018 333.508H432.92" stroke="white" stroke-width="0.6"/>
<path d="M360.018 330.72H432.92" stroke="white" stroke-width="0.6"/>
<path d="M360.018 327.931H432.92" stroke="white" stroke-width="0.6"/>
<path d="M360.018 325.143H432.92" stroke="white" stroke-width="0.6"/>
</g>
<path d="M395.415 298.104L416.808 314.356L421.371 341.595L399.975 325.343L395.415 298.104V298.104Z" fill="#589BF7"/>
<mask id="mask2_1_2007" style="mask-type:luminance" maskUnits="userSpaceOnUse" x="395" y="298" width="27" height="44">
<path fill-rule="evenodd" clip-rule="evenodd" d="M395.415 298.104L416.808 314.356L421.371 341.595L399.975 325.343L395.415 298.104V298.104Z" fill="white"/>
</mask>
<g mask="url(#mask2_1_2007)">
<path d="M393.29 298.104C417.011 315.564 416.545 314.159 416.71 315.444C416.875 316.728 421.37 339.427 421.37 340.511C421.37 341.595 422.013 312.183 422.013 312.183L413.053 300.983L396.468 295.581" fill="#2976DF"/>
</g>
<path d="M384.526 315.278C382.884 317.738 381.032 320.051 378.992 322.192C378.494 322.715 379.287 323.51 379.786 322.986C381.891 320.774 383.802 318.385 385.496 315.845C385.898 315.242 384.926 314.679 384.526 315.278V315.278Z" fill="#D6DCF2"/>
<rect x="359.276" y="425.45" width="65.6594" height="87.9168" rx="5.59255" fill="#589BF7"/>
<mask id="mask3_1_2007" style="mask-type:luminance" maskUnits="userSpaceOnUse" x="359" y="425" width="66" height="89">
<rect x="359.276" y="425.45" width="65.6594" height="87.9168" rx="5.59255" fill="white"/>
</mask>
<g mask="url(#mask3_1_2007)">
<path d="M427.912 498.339C420.998 483.036 427.967 518.267 363.621 513.367C299.275 508.467 394.826 539.613 394.826 539.613L440.504 511.192" fill="#2976DF"/>
</g>
<rect x="364.934" y="432.673" width="54.3443" height="49.2375" rx="3.33866" fill="#EFF3FC"/>
<mask id="mask4_1_2007" style="mask-type:luminance" maskUnits="userSpaceOnUse" x="364" y="432" width="56" height="50">
<rect x="364.934" y="432.673" width="54.3443" height="49.2375" rx="3.33866" fill="white"/>
</mask>
<g mask="url(#mask4_1_2007)">
<path d="M342.73 449.457C361.741 451.186 362.212 432.673 377.161 432.673C392.11 432.673 359.276 427.235 359.276 427.235L357.05 431.68" fill="#D6DCF2"/>
</g>
<rect x="368.953" y="490.708" width="44.7323" height="4.99334" rx="1.89202" fill="#2976DF"/>
<rect x="368.953" y="498.339" width="32.5341" height="4.99334" rx="1.89202" fill="#2976DF"/>
<path d="M379.403 447.11C377.812 455.735 377.061 464.494 377.161 473.263H382.392C382.227 468.209 382.645 463.153 383.637 458.194L384.166 458.442L383.987 464.012L387.451 464.538V465.769L383.947 465.237L383.826 469.029C386.029 470.556 388.661 471.338 391.34 471.264V443.08C390.282 443.14 389.22 443.036 388.194 442.769C390.43 441.951 392.859 441.821 395.169 442.396C394.448 442.924 393.586 443.227 392.693 443.267V471.27C395.431 471.369 398.129 470.584 400.386 469.031L400.265 465.244L396.799 465.77V464.54L400.225 464.02L400.046 458.444L400.575 458.196C401.568 463.154 401.986 468.211 401.821 473.265H407.051C407.153 464.495 406.403 455.736 404.81 447.112C402.424 445.771 399.868 444.762 397.21 444.111V442.069C393.794 441.072 390.165 441.072 386.749 442.069V444.178C384.182 444.827 381.712 445.814 379.404 447.112L379.403 447.11Z" fill="#97CC64"/>
<mask id="mask5_1_2007" style="mask-type:luminance" maskUnits="userSpaceOnUse" x="377" y="441" width="31" height="33">
<path fill-rule="evenodd" clip-rule="evenodd" d="M379.403 447.11C377.812 455.735 377.061 464.494 377.161 473.263H382.392C382.227 468.209 382.645 463.153 383.637 458.194L384.166 458.442L383.987 464.012L387.451 464.538V465.769L383.947 465.237L383.826 469.029C386.029 470.556 388.661 471.338 391.34 471.264V443.08C390.282 443.14 389.22 443.036 388.194 442.769C390.43 441.951 392.859 441.821 395.169 442.396C394.448 442.924 393.586 443.227 392.693 443.267V471.27C395.431 471.369 398.129 470.584 400.386 469.031L400.265 465.244L396.799 465.77V464.54L400.225 464.02L400.046 458.444L400.575 458.196C401.568 463.154 401.986 468.211 401.821 473.265H407.051C407.153 464.495 406.403 455.736 404.81 447.112C402.424 445.771 399.868 444.762 397.21 444.111V442.069C393.794 441.072 390.165 441.072 386.749 442.069V444.178C384.182 444.827 381.712 445.814 379.404 447.112L379.403 447.11Z" fill="white"/>
</mask>
<g mask="url(#mask5_1_2007)">
<path d="M368.952 453.345C379.58 458.715 379.099 446.157 385.219 444.618C391.339 443.079 378.654 441.32 378.654 441.32L377.161 444.457" fill="#75AA3C"/>
</g>
<path d="M386.973 449.857L385.862 450.597C385.775 450.651 385.71 450.735 385.681 450.833C385.638 450.988 385.694 451.153 385.821 451.251C385.948 451.349 386.122 451.36 386.26 451.279L387.372 450.538C387.459 450.484 387.523 450.4 387.553 450.302C387.596 450.147 387.54 449.982 387.413 449.884C387.286 449.786 387.112 449.776 386.973 449.857Z" fill="#75AA3C"/>
<path d="M418.041 497.356C417.21 498.341 416.22 499.181 415.112 499.841C414.924 499.951 414.861 500.193 414.971 500.381C415.081 500.57 415.323 500.633 415.512 500.523C416.679 499.83 417.722 498.949 418.6 497.914C418.749 497.757 418.749 497.512 418.6 497.356C418.445 497.203 418.197 497.203 418.042 497.356H418.041Z" fill="#2976DF"/>
<rect x="92.2724" y="425.45" width="65.6594" height="87.9168" rx="5.59255" fill="#FFC562"/>
<mask id="mask6_1_2007" style="mask-type:luminance" maskUnits="userSpaceOnUse" x="92" y="425" width="66" height="89">
<rect x="92.2724" y="425.45" width="65.6594" height="87.9168" rx="5.59255" fill="white"/>
</mask>
<g mask="url(#mask6_1_2007)">
<path d="M161.603 427.316C169.707 523.542 123.393 523.201 91.5519 519.668C59.7113 516.135 139.532 536.505 139.532 536.505L162.039 532.801L175.641 478.022" fill="#D89D35"/>
</g>
<rect x="97.9299" y="432.673" width="54.3443" height="49.2375" rx="3.33866" fill="#EFF3FC"/>
<mask id="mask7_1_2007" style="mask-type:luminance" maskUnits="userSpaceOnUse" x="97" y="432" width="56" height="50">
<rect x="97.9299" y="432.673" width="54.3443" height="49.2375" rx="3.33866" fill="white"/>
</mask>
<g mask="url(#mask7_1_2007)">
<path d="M87.6769 467.613C93.868 424.652 133.078 430.207 133.078 430.207L72.3135 428.238" fill="#D6DCF2"/>
</g>
<rect x="101.949" y="490.708" width="44.7323" height="4.99334" rx="1.89202" fill="#E84B23"/>
<rect x="101.949" y="498.339" width="32.5341" height="4.99334" rx="1.89202" fill="#E84B23"/>
<path d="M136.324 442.862H131.289C130.569 445.691 128.023 447.671 125.104 447.671C122.185 447.671 119.639 445.691 118.919 442.862H113.876V442.866L104.262 447.672L107.469 455.688L113.876 452.48V471.721H136.323V452.48L142.734 455.688L145.941 447.672L136.324 442.862Z" fill="#FFC562"/>
<mask id="mask8_1_2007" style="mask-type:luminance" maskUnits="userSpaceOnUse" x="104" y="442" width="42" height="30">
<path fill-rule="evenodd" clip-rule="evenodd" d="M136.324 442.862H131.289C130.569 445.691 128.023 447.671 125.104 447.671C122.185 447.671 119.639 445.691 118.919 442.862H113.876V442.866L104.262 447.672L107.469 455.688L113.876 452.48V471.721H136.323V452.48L142.734 455.688L145.941 447.672L136.324 442.862Z" fill="white"/>
</mask>
<g mask="url(#mask8_1_2007)">
<path d="M102.756 455.021C104.262 447.672 118.189 443.582 123.512 445.022C128.834 446.461 116.089 436.365 116.089 436.365L90.9053 443.612" fill="#D89D35"/>
</g>
<path d="M124.347 458.464L123.233 459.573C123.133 459.673 123.094 459.818 123.13 459.954C123.167 460.09 123.273 460.197 123.41 460.233C123.546 460.269 123.691 460.23 123.791 460.131L124.905 459.022C125.059 458.868 125.059 458.618 124.905 458.464C124.751 458.31 124.501 458.31 124.347 458.464V458.464Z" fill="#D89D35"/>
<path d="M150.931 502.042C150.897 502.09 150.863 502.137 150.827 502.184C150.851 502.153 150.844 502.162 150.824 502.188L150.768 502.256C150.697 502.343 150.622 502.426 150.544 502.506C150.462 502.59 150.377 502.672 150.289 502.75C150.249 502.785 150.209 502.819 150.168 502.853L150.099 502.908C150.144 502.874 150.104 502.905 150.081 502.922C149.902 503.056 149.713 503.176 149.515 503.281C149.417 503.334 149.316 503.382 149.214 503.428C149.148 503.459 149.236 503.421 149.195 503.437L149.113 503.469C149.058 503.492 149.002 503.51 148.947 503.529C148.808 503.565 148.699 503.672 148.662 503.81C148.625 503.948 148.666 504.096 148.768 504.195C148.871 504.295 149.019 504.331 149.156 504.29C150.15 503.949 151.01 503.302 151.613 502.44C151.721 502.252 151.658 502.011 151.471 501.9C151.282 501.796 151.045 501.858 150.931 502.042V502.042Z" fill="#D89D35"/>
<rect x="145.21" y="404.95" width="96.2803" height="128.918" rx="8.20058" fill="#FE7578"/>
<mask id="mask9_1_2007" style="mask-type:luminance" maskUnits="userSpaceOnUse" x="145" y="404" width="97" height="130">
<rect x="145.21" y="404.95" width="96.2803" height="128.918" rx="8.20058" fill="white"/>
</mask>
<g mask="url(#mask9_1_2007)">
<path d="M246.066 454.539C233.194 429.847 282.742 544.689 156.031 533.868C29.3201 523.046 256.049 573.762 256.049 573.762L272.099 483.612" fill="#E55A61"/>
</g>
<rect x="153.506" y="415.541" width="79.6886" height="72.1999" rx="4.89569" fill="#EFF3FC"/>
<mask id="mask10_1_2007" style="mask-type:luminance" maskUnits="userSpaceOnUse" x="153" y="415" width="81" height="73">
<rect x="153.506" y="415.541" width="79.6886" height="72.1999" rx="4.89569" fill="white"/>
</mask>
<g mask="url(#mask10_1_2007)">
<path d="M144.216 466.233C145.55 392.918 231.807 415.541 231.807 415.541L134.156 409.037L128.4 415.541" fill="#D6DCF2"/>
</g>
<rect x="159.399" y="500.641" width="65.594" height="7.32219" rx="2.77435" fill="#FFC562"/>
<rect x="159.399" y="511.832" width="47.7067" height="7.32219" rx="2.77435" fill="#FFC562"/>
<path d="M215.127 475.589L209.268 433.088C209.073 432.167 208.234 431.527 207.294 431.581H179.405C178.465 431.527 177.626 432.167 177.431 433.088L171.572 475.589C171.546 476.114 171.748 476.625 172.127 476.991C172.505 477.357 173.023 477.541 173.547 477.498H188.893C189.866 477.558 190.725 476.869 190.876 475.906L192.919 450.159C192.968 449.938 193.164 449.78 193.39 449.78C193.616 449.78 193.812 449.938 193.861 450.159L195.827 475.901C195.976 476.866 196.837 477.559 197.812 477.497H213.153C213.677 477.541 214.195 477.356 214.573 476.991C214.951 476.625 215.153 476.114 215.127 475.589Z" fill="#FE7578"/>
<path d="M179.582 428.732H206.99C207.804 428.732 208.464 428.072 208.464 427.257C208.464 426.443 207.804 425.783 206.99 425.783H179.582C178.768 425.783 178.108 426.443 178.108 427.257C178.108 428.072 178.768 428.732 179.582 428.732V428.732Z" fill="#E55A61"/>
<path d="M188.587 441.386L182.613 447.903C182.111 448.452 182.927 449.272 183.432 448.722L189.406 442.204C189.908 441.656 189.092 440.835 188.587 441.386Z" fill="#E55A61"/>
<path d="M230.85 510.081C230.81 510.237 230.764 510.392 230.711 510.543C230.686 510.615 230.659 510.686 230.631 510.757C230.574 510.909 230.66 510.698 230.622 510.783L230.57 510.899C230.435 511.191 230.276 511.472 230.094 511.737C230.051 511.8 230.006 511.86 229.961 511.923C229.908 511.999 230.044 511.821 229.943 511.947L229.879 512.025C229.777 512.149 229.67 512.269 229.557 512.384C229.444 512.499 229.327 512.609 229.205 512.714C229.141 512.769 229.076 512.823 229.009 512.875C229.053 512.84 229.045 512.847 229.005 512.876L228.881 512.965C228.7 513.068 228.588 513.26 228.588 513.469C228.588 513.677 228.701 513.869 228.882 513.972C229.064 514.074 229.286 514.072 229.465 513.964C230.697 513.108 231.584 511.84 231.966 510.389C232.023 510.189 231.968 509.974 231.822 509.826C231.677 509.677 231.463 509.618 231.262 509.671C231.061 509.724 230.904 509.881 230.85 510.081V510.081Z" fill="#E55A61"/>
<rect x="275.718" y="404.95" width="96.2803" height="128.918" rx="8.20058" fill="#9A7ED9"/>
<mask id="mask11_1_2007" style="mask-type:luminance" maskUnits="userSpaceOnUse" x="275" y="404" width="97" height="130">
<rect x="275.718" y="404.95" width="96.2803" height="128.918" rx="8.20058" fill="white"/>
</mask>
<g mask="url(#mask11_1_2007)">
<path d="M371.998 475.061C366.595 461.513 375.678 540.329 316.829 533.868C257.98 527.406 387.231 556.732 387.231 556.732L397.731 507.963" fill="#6F4EB9"/>
</g>
<rect x="284.014" y="415.541" width="79.6886" height="72.1999" rx="4.89569" fill="#EFF3FC"/>
<mask id="mask12_1_2007" style="mask-type:luminance" maskUnits="userSpaceOnUse" x="284" y="415" width="80" height="73">
<rect x="284.014" y="415.541" width="79.6886" height="72.1999" rx="4.89569" fill="white"/>
</mask>
<g mask="url(#mask12_1_2007)">
<path d="M281.513 451.641C275.718 418.791 299.642 415.31 335.82 415.541C371.998 415.771 275.718 404.95 275.718 404.95L264.134 408.653" fill="#D6DCF2"/>
</g>
<rect x="289.907" y="500.641" width="65.594" height="7.32219" rx="2.77435" fill="#6F4EB9"/>
<rect x="289.907" y="511.832" width="47.7067" height="7.32219" rx="2.77435" fill="#6F4EB9"/>
<path d="M336.023 440.562V434.756H325.253V448.577C325.253 449.347 324.628 449.971 323.858 449.971C323.088 449.971 322.464 449.347 322.464 448.577V434.756H311.694V440.667C311.694 445.248 309.04 449.415 304.888 451.352L302.779 452.337V474.711C302.779 475.581 303.484 476.287 304.354 476.287H318.615C319.363 476.287 320.008 475.761 320.158 475.028L323.088 460.79H324.627L327.557 475.028C327.707 475.761 328.352 476.287 329.1 476.287H343.361C343.779 476.287 344.18 476.121 344.475 475.825C344.771 475.53 344.937 475.129 344.937 474.711V452.232L342.828 451.247C338.676 449.31 336.023 445.143 336.023 440.562Z" fill="#9A7ED9"/>
<path d="M338.934 434.755V440.562C338.941 444.01 340.937 447.144 344.059 448.609L344.938 449.019V434.754L338.934 434.755Z" fill="#9A7ED9"/>
<path d="M308.783 440.666V434.755H302.778V449.124L303.657 448.714C306.779 447.248 308.775 444.114 308.783 440.666Z" fill="#9A7ED9"/>
<path d="M344.748 429.085C344.747 427.932 343.812 426.996 342.659 426.996H305.058C304.504 426.996 303.972 427.216 303.58 427.608C303.189 428 302.969 428.531 302.969 429.085V432.632H344.748V429.085Z" fill="#6F4EB9"/>
<path d="M336.588 456.152L334.959 459.954C334.808 460.231 334.899 460.577 335.166 460.745C335.442 460.904 335.795 460.812 335.958 460.538L337.587 456.736C337.737 456.459 337.646 456.112 337.379 455.944C337.103 455.785 336.75 455.878 336.588 456.152V456.152Z" fill="#6F4EB9"/>
<path d="M347.042 517.459L344.313 519.615C344.088 519.841 344.088 520.207 344.313 520.433C344.543 520.65 344.902 520.65 345.132 520.433L347.86 518.278C348.085 518.051 348.085 517.686 347.86 517.459C347.63 517.243 347.271 517.243 347.042 517.459V517.459Z" fill="#6F4EB9"/>
<circle cx="122.029" cy="303.077" r="34.1504" fill="#9A7ED9"/>
<rect x="112.912" y="286.483" width="18.2353" height="40.6637" rx="1.76887" fill="#589BF7"/>
<path d="M117.547 279.007H126.512C127.681 279.007 128.629 279.954 128.629 281.123V286.483H115.432V281.122C115.432 279.954 116.379 279.007 117.547 279.007Z" fill="#FFC562"/>
<mask id="mask13_1_2007" style="mask-type:luminance" maskUnits="userSpaceOnUse" x="115" y="279" width="14" height="8">
<path fill-rule="evenodd" clip-rule="evenodd" d="M117.547 279.007H126.512C127.681 279.007 128.629 279.954 128.629 281.123V286.483H115.432V281.122C115.432 279.954 116.379 279.007 117.547 279.007Z" fill="white"/>
</mask>
<g mask="url(#mask13_1_2007)">
<path d="M117.6 286.483C116.82 285.438 128.863 286.461 128.912 282.122C128.961 277.784 131.74 287.729 131.74 287.729L123.695 289.484" fill="#D89D35"/>
</g>
<rect x="115.866" y="295.617" width="12.3275" height="3.1205" rx="1.18238" fill="#2976DF"/>
<rect x="118.324" y="300.915" width="7.41109" height="0.877669" rx="0.332472" fill="#2976DF"/>
<rect x="115.159" y="319.345" width="13.7414" height="0.682583" fill="#2976DF"/>
<path d="M119.694 282.853L119.303 283.113C119.266 283.136 119.238 283.172 119.225 283.214C119.214 283.259 119.22 283.306 119.243 283.345C119.265 283.384 119.302 283.412 119.346 283.424C119.39 283.435 119.436 283.429 119.475 283.406L119.865 283.146C119.902 283.123 119.93 283.087 119.943 283.045C119.955 283.001 119.949 282.954 119.926 282.914C119.903 282.875 119.866 282.847 119.822 282.835C119.779 282.824 119.733 282.83 119.694 282.853Z" fill="#D89D35"/>
<path d="M124.191 313.415L125.361 312.115C125.426 312.048 125.426 311.942 125.361 311.875C125.295 311.81 125.188 311.81 125.121 311.875L123.951 313.175C123.887 313.242 123.887 313.348 123.951 313.415C124.018 313.481 124.124 313.481 124.191 313.415Z" fill="#2976DF"/>
<path d="M117.698 323.742C117.79 323.739 117.862 323.664 117.862 323.572C117.862 323.481 117.79 323.406 117.698 323.403C117.607 323.406 117.535 323.481 117.535 323.572C117.535 323.664 117.607 323.739 117.698 323.742Z" fill="#7B5CB7"/>
<circle cx="295.65" cy="389.234" r="42.8533" fill="#97CC64"/>
<path d="M291.241 406.022H300.059V416.367C300.059 416.983 299.56 417.483 298.943 417.483H292.357C292.061 417.483 291.777 417.365 291.568 417.156C291.358 416.947 291.241 416.663 291.241 416.367V406.022H291.241Z" fill="#935738"/>
<mask id="mask14_1_2007" style="mask-type:luminance" maskUnits="userSpaceOnUse" x="291" y="406" width="10" height="12">
<path fill-rule="evenodd" clip-rule="evenodd" d="M291.241 406.022H300.059V416.367C300.059 416.983 299.56 417.483 298.943 417.483H292.357C292.061 417.483 291.777 417.365 291.568 417.156C291.358 416.947 291.241 416.663 291.241 416.367V406.022H291.241Z" fill="white"/>
</mask>
<g mask="url(#mask14_1_2007)">
<path d="M290.576 411.754C292.203 409.118 288.63 417.073 298.944 417.484C309.257 417.895 289.316 419.614 289.316 419.614L287.253 415.682" fill="#6D3417"/>
</g>
<path d="M305.159 363.582H286.14L291.237 406.06H300.062L305.159 363.582V363.582Z" fill="#F0F3FC"/>
<mask id="mask15_1_2007" style="mask-type:luminance" maskUnits="userSpaceOnUse" x="286" y="363" width="20" height="44">
<path fill-rule="evenodd" clip-rule="evenodd" d="M305.159 363.582H286.14L291.237 406.06H300.062L305.159 363.582V363.582Z" fill="white"/>
</mask>
<g mask="url(#mask15_1_2007)">
<path d="M287.221 380.122C289.201 372.97 287.767 406.206 300.059 409.529C312.351 412.852 280.606 412.421 280.606 412.421L280.491 400.343" fill="#D6DCF2"/>
</g>
<rect x="286.141" y="360.984" width="19.0188" height="2.5982" fill="#D6DCF2"/>
<path d="M294.893 368.577C293.673 369.747 292.384 370.841 291.031 371.854C290.807 372.022 291.026 372.404 291.253 372.234C292.636 371.2 293.956 370.082 295.203 368.888C295.408 368.692 295.097 368.381 294.893 368.578L294.893 368.577Z" fill="#D6DCF2"/>
<path d="M299.131 389.432L298.787 389.776C298.746 389.818 298.723 389.873 298.722 389.931C298.722 390.053 298.821 390.151 298.942 390.151C299 390.15 299.056 390.127 299.097 390.087L299.441 389.743C299.482 389.701 299.505 389.646 299.506 389.588C299.505 389.53 299.482 389.474 299.441 389.433C299.4 389.392 299.344 389.369 299.286 389.368C299.228 389.369 299.173 389.392 299.131 389.433L299.131 389.432Z" fill="#D6DCF2"/>
<path d="M294.645 412.834C295.386 412.66 296.098 412.384 296.762 412.012C297.009 411.874 296.787 411.494 296.54 411.633C295.909 411.985 295.232 412.246 294.529 412.41C294.253 412.475 294.37 412.898 294.646 412.834H294.645Z" fill="#6D3417"/>
<path d="M147.34 184.532C145.027 181.834 99.5476 129.032 98.3906 127.875C97.2336 126.719 93.2202 108.343 88.8817 110.121C86.1849 111.227 86.0572 128.646 90.6823 134.428C95.3074 140.209 143.099 212.629 143.099 212.629L147.34 184.532Z" fill="#FF9763"/>
<mask id="mask16_1_2007" style="mask-type:luminance" maskUnits="userSpaceOnUse" x="87" y="110" width="61" height="103">
<path fill-rule="evenodd" clip-rule="evenodd" d="M147.34 184.532C145.027 181.834 99.5476 129.032 98.3906 127.875C97.2336 126.719 93.2202 108.343 88.8817 110.121C86.1849 111.227 86.0572 128.646 90.6823 134.428C95.3074 140.209 143.099 212.629 143.099 212.629L147.34 184.532Z" fill="white"/>
</mask>
<g mask="url(#mask16_1_2007)">
<path d="M108.678 171.686C129.787 194.795 141.705 176.527 145.079 177.773C148.454 179.019 149.342 189.462 149.342 189.462L135.565 204.235L114.456 200.572" fill="#E84B23"/>
</g>
<path d="M126.527 202.261C128.069 186.33 145.078 177.773 145.078 177.773C145.078 177.773 170.722 202.261 189.222 202.261C201.662 202.261 192.819 220.761 192.819 220.761L178.336 247.484L126.527 202.261Z" fill="#FFC562"/>
<mask id="mask17_1_2007" style="mask-type:luminance" maskUnits="userSpaceOnUse" x="126" y="177" width="70" height="71">
<path fill-rule="evenodd" clip-rule="evenodd" d="M126.527 202.261C128.069 186.33 145.078 177.773 145.078 177.773C145.078 177.773 170.722 202.261 189.222 202.261C201.662 202.261 192.819 220.761 192.819 220.761L178.336 247.484L126.527 202.261Z" fill="white"/>
</mask>
<g mask="url(#mask17_1_2007)">
<path d="M121.995 221.316C142.759 216.43 143.793 212.196 158.918 222.428C174.043 232.66 179.735 216.088 186.277 218.424C192.819 220.761 193.394 253.123 193.394 253.123L164.923 258.016L121.995 221.316Z" fill="#D89D35"/>
<path d="M169.885 183.452C141.011 179.294 135.383 217.712 135.383 217.712" stroke="white" stroke-width="3.45408" stroke-linecap="round" stroke-linejoin="round"/>
</g>
<path d="M238.094 247.484C238.932 248.321 248.403 270.722 250.443 287.12C253.094 308.441 250.085 336.03 250.376 336.901C250.89 338.443 254.802 360.514 250.398 355.985C247.026 352.517 243.785 341.302 243.785 341.302C243.785 341.302 237.956 347.467 239.839 342.297C241.066 338.93 238.362 309.997 234.312 292.228C233.047 287.337 230.821 282.748 227.763 278.727C223.653 272.921 238.094 247.484 238.094 247.484Z" fill="#FF9763"/>
<mask id="mask18_1_2007" style="mask-type:luminance" maskUnits="userSpaceOnUse" x="227" y="247" width="26" height="110">
<path fill-rule="evenodd" clip-rule="evenodd" d="M238.094 247.484C238.932 248.321 248.403 270.722 250.443 287.12C253.094 308.441 250.085 336.03 250.376 336.901C250.89 338.443 254.802 360.514 250.398 355.985C247.026 352.517 243.785 341.302 243.785 341.302C243.785 341.302 237.956 347.467 239.839 342.297C241.066 338.93 238.362 309.997 234.312 292.228C233.047 287.337 230.821 282.748 227.763 278.727C223.653 272.921 238.094 247.484 238.094 247.484Z" fill="white"/>
</mask>
<g mask="url(#mask18_1_2007)">
<path d="M225.556 289.601C238.888 289.675 238.335 272.404 244.278 267.374C250.221 262.344 230.888 266.344 230.888 266.344L221.308 278.727" fill="#E84B23"/>
</g>
<path d="M181.225 511.263L183.4 532.955H198.364L194.114 505.1L181.225 511.263V511.263Z" fill="#FF9763"/>
<mask id="mask19_1_2007" style="mask-type:luminance" maskUnits="userSpaceOnUse" x="181" y="505" width="18" height="28">
<path fill-rule="evenodd" clip-rule="evenodd" d="M181.225 511.263L183.4 532.955H198.364L194.114 505.1L181.225 511.263V511.263Z" fill="white"/>
</mask>
<g mask="url(#mask19_1_2007)">
<path d="M179.341 519.028C179.337 522.876 194.997 521.551 197.054 524.38C199.111 527.209 198.362 519.028 198.362 519.028L193.779 514.432L186.557 514.654" fill="#E84B23"/>
</g>
<path d="M149.099 537.834C149.099 537.834 149.099 525.122 168.379 528.592C178.192 530.358 182.616 525.122 182.616 525.122C182.616 525.122 193.903 532.162 198.057 531.322L199.28 537.834H149.099Z" fill="#3A3530"/>
<path d="M257.442 492.767L269.42 532.634H253.745L241.443 496.101L257.442 492.767V492.767Z" fill="#FF9763"/>
<mask id="mask20_1_2007" style="mask-type:luminance" maskUnits="userSpaceOnUse" x="241" y="492" width="29" height="41">
<path fill-rule="evenodd" clip-rule="evenodd" d="M257.442 492.767L269.42 532.634H253.745L241.443 496.101L257.442 492.767V492.767Z" fill="white"/>
</mask>
<g mask="url(#mask20_1_2007)">
<path d="M241.444 525.122C257.775 526.097 253.338 513.775 262.667 510.159C271.996 506.544 252.577 505.1 252.577 505.1L240.133 514.965" fill="#E84B23"/>
</g>
<path d="M300.795 538.1C300.795 538.1 305.257 523.605 284.13 529.236C275.375 531.569 266.137 521.709 266.137 521.709C266.137 521.709 257.373 530.105 252.577 529.163L255.367 538.1H300.795Z" fill="#3A3530"/>
<path d="M179.692 521.004C197.307 523.851 202.369 517.444 202.369 517.444L192.049 391.888L205.924 283.199L161.985 286.283C161.985 286.283 156.204 380.882 156.975 389.19C157.746 397.498 179.692 521.004 179.692 521.004Z" fill="#589BF7"/>
<mask id="mask21_1_2007" style="mask-type:luminance" maskUnits="userSpaceOnUse" x="156" y="283" width="50" height="239">
<path fill-rule="evenodd" clip-rule="evenodd" d="M179.692 521.004C197.307 523.851 202.369 517.444 202.369 517.444L192.049 391.888L205.924 283.199L161.985 286.283C161.985 286.283 156.204 380.882 156.975 389.19C157.746 397.498 179.692 521.004 179.692 521.004Z" fill="white"/>
</mask>
<g mask="url(#mask21_1_2007)">
<path d="M183.524 312.426C188.139 347.312 181.599 368.891 191.544 410.92C201.49 452.948 205.924 359.587 205.924 359.587L209.19 344.188" fill="#2976DF"/>
</g>
<path d="M183.344 322.551L198.472 378.527L243.085 516.026C251.174 516.242 259.064 513.502 265.278 508.319L230.334 372.874L217.649 278.727L172.708 283.199" fill="#589BF7"/>
<mask id="mask22_1_2007" style="mask-type:luminance" maskUnits="userSpaceOnUse" x="172" y="278" width="94" height="239">
<path fill-rule="evenodd" clip-rule="evenodd" d="M183.344 322.551L198.472 378.527L243.085 516.026C251.174 516.242 259.064 513.502 265.278 508.319L230.334 372.874L217.649 278.727L172.708 283.199" fill="white"/>
</mask>
<g mask="url(#mask22_1_2007)">
<path d="M152.083 282.326C173.335 341.714 207.696 266.204 227.028 323.533C246.359 380.861 217.65 278.727 217.65 278.727L170.451 258.123L147.341 274.121L126.528 289.601L117.171 302.04" fill="#2976DF"/>
</g>
<path d="M161.986 286.283C145.323 312.395 177.789 309.46 209.519 294.245C241.25 279.029 179.331 284.162 179.331 284.162" fill="#F0F3FC"/>
<path d="M189.222 202.261C189.222 202.261 214.916 205.344 224.681 218.192C224.681 218.192 224.681 260.331 219.456 292.135C219.456 292.135 167.638 304.982 153.25 291.679C142.979 282.183 165.696 240.689 179.542 217.712" fill="#FFC562"/>
<mask id="mask23_1_2007" style="mask-type:luminance" maskUnits="userSpaceOnUse" x="150" y="202" width="75" height="96">
<path fill-rule="evenodd" clip-rule="evenodd" d="M189.222 202.261C189.222 202.261 214.916 205.344 224.681 218.192C224.681 218.192 224.681 260.331 219.456 292.135C219.456 292.135 167.638 304.982 153.25 291.679C142.979 282.183 165.696 240.689 179.542 217.712" fill="white"/>
</mask>
<g mask="url(#mask23_1_2007)">
<path d="M223.846 293.382C185.606 320.238 223.197 293.96 211.593 262.066C207.263 250.164 208.297 243.335 208.297 243.335L233.654 285.597L223.846 295.828" fill="#D89D35"/>
<path fill-rule="evenodd" clip-rule="evenodd" d="M169.444 244.474C172.359 235.702 180.758 229.943 189.991 230.387C198.61 231.251 203.386 238.961 200.657 247.604C197.743 256.377 189.343 262.135 180.11 261.691C171.492 260.827 166.716 253.117 169.444 244.474ZM172.788 244.809C170.644 251.601 174.396 257.658 181.168 258.337H181.169C188.423 258.686 195.023 254.161 197.312 247.269C199.456 240.477 195.704 234.42 188.932 233.741C181.677 233.392 175.078 237.916 172.788 244.809Z" fill="#D89D35"/>
<path d="M180.917 242.056C181.906 242.104 182.806 241.487 183.119 240.547C183.281 240.15 183.243 239.699 183.017 239.334C182.791 238.969 182.404 238.734 181.976 238.702C180.986 238.655 180.086 239.272 179.774 240.212C179.612 240.609 179.65 241.06 179.876 241.425C180.102 241.79 180.489 242.024 180.917 242.056Z" fill="#D89D35"/>
<path d="M192.426 239.75C191.437 239.703 190.537 240.32 190.225 241.26C190.063 241.657 190.101 242.108 190.327 242.473C190.553 242.838 190.94 243.072 191.368 243.104C192.357 243.152 193.257 242.535 193.569 241.595C193.731 241.198 193.694 240.747 193.467 240.382C193.241 240.017 192.854 239.782 192.426 239.75Z" fill="#D89D35"/>
<path d="M190.995 245.197C190.175 245.158 189.427 245.667 189.164 246.444V246.444L189.162 246.452C188.395 248.763 186.182 250.28 183.749 250.162C182.723 250.089 181.79 249.538 181.229 248.675C180.669 247.811 180.547 246.735 180.899 245.768C180.919 245.72 180.937 245.671 180.953 245.621C181.088 245.29 181.056 244.914 180.868 244.61C180.679 244.306 180.356 244.11 180 244.084C179.175 244.044 178.425 244.558 178.165 245.342H178.155L178.153 245.348C177.483 246.988 177.639 248.848 178.571 250.354C179.504 251.859 181.1 252.827 182.866 252.958C186.945 253.156 190.656 250.613 191.945 246.739L191.946 246.735V246.734V246.732L191.949 246.725V246.725C192.081 246.394 192.047 246.021 191.859 245.719C191.67 245.418 191.349 245.224 190.995 245.197Z" fill="#D89D35"/>
<ellipse cx="205.846" cy="207.741" rx="15.552" ry="13.2528" transform="rotate(-65.7103 205.846 207.741)" fill="#F0F3FC"/>
</g>
<path d="M203.709 246.552L224.68 283.199C234.83 282.043 247.934 262.387 247.934 262.387C247.934 262.387 234.421 222.813 222.779 217.057" fill="#FFC562"/>
<mask id="mask24_1_2007" style="mask-type:luminance" maskUnits="userSpaceOnUse" x="203" y="217" width="45" height="67">
<path fill-rule="evenodd" clip-rule="evenodd" d="M203.709 246.552L224.68 283.199C234.83 282.043 247.934 262.387 247.934 262.387C247.934 262.387 234.421 222.813 222.779 217.057" fill="white"/>
</mask>
<g mask="url(#mask24_1_2007)">
<path d="M209.776 273.208C238.651 277.367 244.279 238.948 244.279 238.948" stroke="white" stroke-width="3.45408" stroke-linecap="round" stroke-linejoin="round"/>
</g>
<rect x="196.778" y="190.757" width="16.345" height="26.9548" rx="6.19324" fill="#FF9763"/>
<mask id="mask25_1_2007" style="mask-type:luminance" maskUnits="userSpaceOnUse" x="196" y="190" width="18" height="28">
<rect x="196.778" y="190.757" width="16.345" height="26.9548" rx="6.19324" fill="white"/>
</mask>
<g mask="url(#mask25_1_2007)">
<path d="M194.394 213.912C199.601 214.838 194.852 205.935 201.471 204.032C205.239 202.975 207.6 199.243 206.942 195.386L196.778 189.086C196.778 189.086 189.585 205.965 189.75 206.462" fill="#E84B23"/>
</g>
<path d="M206.197 200.884C202.845 202.224 199.09 202.126 195.813 200.613V200.613C189.201 197.571 186.307 189.744 189.349 183.132L194.123 172.755C195.584 169.58 198.246 167.115 201.525 165.903C204.803 164.691 208.429 164.83 211.604 166.291V166.291C218.216 169.334 221.11 177.16 218.068 183.772L215.43 189.505" fill="#FF9763"/>
<mask id="mask26_1_2007" style="mask-type:luminance" maskUnits="userSpaceOnUse" x="188" y="165" width="32" height="37">
<path fill-rule="evenodd" clip-rule="evenodd" d="M206.197 200.884C202.845 202.224 199.09 202.126 195.813 200.613V200.613C189.201 197.571 186.307 189.744 189.349 183.132L194.123 172.755C195.584 169.58 198.246 167.115 201.525 165.903C204.803 164.691 208.429 164.83 211.604 166.291V166.291C218.216 169.334 221.11 177.16 218.068 183.772L215.43 189.505" fill="white"/>
</mask>
<g mask="url(#mask26_1_2007)">
<ellipse opacity="0.27" cx="188.139" cy="186.952" rx="4.48079" ry="2.7443" transform="rotate(-6.1159 188.139 186.952)" fill="#E84B23"/>
<ellipse opacity="0.27" cx="205.017" cy="190.578" rx="2.76624" ry="3.73148" transform="rotate(-72.765 205.017 190.578)" fill="#E84B23"/>
<rect x="193.674" y="179.506" width="2.67934" height="4.94191" rx="1.01522" transform="rotate(17.2356 193.674 179.506)" fill="#190000"/>
<rect x="203.404" y="181.737" width="2.67934" height="4.94191" rx="1.01522" transform="rotate(17.2349 203.404 181.737)" fill="#190000"/>
<path d="M195.569 176.788C192.721 176.74 192.999 178.386 194.777 178.533C196.555 178.679 197.43 176.82 195.569 176.788Z" fill="#190000"/>
<path d="M205.573 178.994C207.948 180.565 207.019 181.718 205.471 180.832C203.922 179.946 204.022 177.967 205.573 178.994Z" fill="#190000"/>
<path d="M199.168 186.184C198.999 187.075 198.304 186.577 197.365 186.399C196.426 186.22 195.596 186.428 195.765 185.538C195.985 184.644 196.867 184.078 197.773 184.249C198.678 184.421 199.291 185.271 199.168 186.184V186.184Z" fill="#E84B23"/>
<path d="M192.889 189.875C192.726 196.514 199.314 195.122 200.264 191.176C200.31 190.971 200.222 190.76 200.045 190.646C198.023 189.47 195.658 189.025 193.346 189.385C193.093 189.411 192.898 189.621 192.889 189.875V189.875Z" fill="#C1525F"/>
<mask id="mask27_1_2007" style="mask-type:luminance" maskUnits="userSpaceOnUse" x="192" y="189" width="9" height="6">
<path fill-rule="evenodd" clip-rule="evenodd" d="M192.889 189.875C192.726 196.514 199.314 195.122 200.264 191.176C200.31 190.971 200.222 190.76 200.045 190.646C198.023 189.47 195.658 189.025 193.346 189.385C193.093 189.411 192.898 189.621 192.889 189.875V189.875Z" fill="white"/>
</mask>
<g mask="url(#mask27_1_2007)">
<ellipse cx="196.695" cy="194.315" rx="3.32923" ry="2.97144" transform="rotate(-7.19253 196.695 194.315)" fill="#993443"/>
<path d="M194.228 189.083C194.129 189.453 194.11 189.84 194.172 190.218C195.515 190.995 197.083 191.288 198.616 191.048C198.812 190.585 198.954 190.1 199.037 189.604L194.775 188.947" fill="#F0F3FC"/>
</g>
</g>
<path d="M222.915 155.936C219.616 154.417 215.82 154.406 212.512 155.906C208.301 150.305 200.444 148.978 194.627 152.886C188.81 156.793 187.068 164.569 190.661 170.585C194.254 176.601 201.926 178.754 208.125 175.486C208.186 175.559 208.242 175.635 208.306 175.706C208.13 176.01 207.923 176.286 207.774 176.611C205.551 181.43 207.049 187.149 211.349 190.26C215.65 193.37 221.55 193.003 225.431 189.383C229.312 185.763 230.089 179.902 227.285 175.396C229.809 172.403 230.788 168.401 229.93 164.581C229.073 160.761 226.477 157.562 222.915 155.936V155.936Z" fill="#3A3530"/>
<path d="M208.267 188.252C209.824 185.379 213.39 184.277 216.296 185.77C219.202 187.264 220.381 190.805 218.952 193.743C217.522 196.681 214.006 197.937 211.039 196.571" fill="#FF9763"/>
<path d="M202.514 161.218C201.622 162.549 201.427 164.228 201.991 165.727C202.057 165.942 202.198 166.125 202.388 166.244C202.59 166.36 202.829 166.391 203.054 166.332C203.512 166.2 203.78 165.727 203.658 165.267C203.598 165.116 203.547 164.962 203.505 164.805C203.484 164.726 203.466 164.647 203.45 164.567L203.428 164.447C203.413 164.351 203.415 164.367 203.433 164.496C203.394 164.336 203.384 164.171 203.403 164.008C203.403 163.855 203.416 163.704 203.426 163.551C203.434 163.485 203.43 163.511 203.414 163.63L203.433 163.509C203.447 163.429 203.463 163.349 203.482 163.27C203.519 163.111 203.565 162.955 203.62 162.802L203.664 162.688C203.616 162.801 203.61 162.813 203.648 162.726C203.683 162.653 203.717 162.579 203.755 162.507C203.831 162.363 203.916 162.224 204.008 162.09C204.247 161.677 204.108 161.15 203.698 160.907C203.284 160.678 202.763 160.815 202.515 161.217L202.514 161.218Z" fill="#190000"/>
<path d="M213.548 189.85C213.599 189.898 213.647 189.949 213.69 190.004L213.555 189.829C213.62 189.915 213.675 190.009 213.718 190.108L213.631 189.902C213.679 190.017 213.711 190.137 213.729 190.26L213.698 190.03C213.714 190.154 213.714 190.279 213.698 190.402L213.729 190.172C213.712 190.287 213.682 190.4 213.637 190.507L213.724 190.3C213.692 190.371 213.655 190.439 213.611 190.504C213.433 190.807 213.457 191.189 213.672 191.468C213.887 191.747 214.249 191.868 214.588 191.774C214.802 191.706 214.984 191.565 215.105 191.376C215.233 191.185 215.325 190.971 215.376 190.746C215.433 190.516 215.451 190.278 215.429 190.042C215.411 189.742 215.329 189.448 215.188 189.183C215.085 188.973 214.943 188.785 214.771 188.627C214.606 188.469 214.388 188.378 214.159 188.374C213.93 188.376 213.711 188.467 213.548 188.627C213.386 188.789 213.295 189.009 213.295 189.239C213.295 189.468 213.386 189.688 213.548 189.85H213.548Z" fill="#190000"/>
<path d="M165.251 277.715C167.869 280.256 171.064 282.124 174.562 283.16C175.022 283.287 175.499 283.016 175.626 282.556C175.753 282.095 175.482 281.619 175.022 281.492C171.81 280.541 168.877 278.826 166.474 276.492C165.676 275.716 164.451 276.938 165.251 277.715H165.251Z" fill="#D89D35"/>
<path d="M197.431 309.527C196.331 313.444 197.343 317.651 200.103 320.639C202.863 323.628 206.976 324.97 210.968 324.185C212.062 323.988 211.598 322.321 210.508 322.517C207.118 323.137 203.647 321.966 201.327 319.418C199.007 316.869 198.164 313.305 199.099 309.987C199.226 309.527 198.955 309.05 198.495 308.923C198.034 308.796 197.558 309.067 197.431 309.527V309.527Z" fill="#2976DF"/>
<path d="M175.409 522.742C176.659 524.289 177.512 526.118 177.894 528.069L179.561 527.609C178.788 525.738 176.363 525.302 174.596 524.867C172.448 524.342 170.249 524.054 168.039 524.007C167.561 524.007 167.174 524.394 167.174 524.872C167.174 525.349 167.561 525.736 168.039 525.736C169.894 525.773 171.741 525.995 173.552 526.397C174.462 526.601 175.361 526.849 176.248 527.141C176.745 527.305 177.667 527.518 177.894 528.069C178.021 528.529 178.497 528.8 178.958 528.673C179.418 528.546 179.689 528.069 179.562 527.609C179.098 525.37 178.092 523.279 176.632 521.518C176.293 521.184 175.748 521.184 175.409 521.518C175.082 521.86 175.082 522.399 175.409 522.741L175.409 522.742Z" fill="#190000"/>
<path d="M271.833 520.55C271.058 522.224 270.667 524.049 270.688 525.893C270.697 526.238 270.909 526.546 271.228 526.678C271.547 526.81 271.914 526.742 272.165 526.505C274.497 524.159 277.348 522.395 280.488 521.355C281.54 521.009 281.089 519.338 280.028 519.687C276.602 520.813 273.489 522.73 270.942 525.282L272.418 525.893C272.386 524.354 272.696 522.827 273.327 521.422C273.553 521.008 273.417 520.489 273.017 520.239C272.604 520.002 272.077 520.14 271.833 520.55L271.833 520.55Z" fill="#190000"/>
<path d="M176.512 512.701L178.65 521.709C178.65 521.709 194.355 525.72 203.079 517.444L202.365 508.76C202.365 508.76 197.044 516.447 176.512 512.701Z" fill="#FFC562"/>
<path d="M264.093 499.958L266.069 509.003C266.069 509.003 253.655 519.422 242.205 515.745L239.086 507.609C239.086 507.609 247.211 512.232 264.093 499.958Z" fill="#FFC562"/>
<path d="M96.1615 128.194L94.2364 129.477C94.0451 129.595 93.9036 129.779 93.8389 129.994C93.7791 130.219 93.8104 130.458 93.926 130.66C94.0417 130.858 94.2314 131.003 94.4534 131.061C94.6753 131.119 94.9113 131.087 95.1094 130.971L97.0345 129.688C97.2259 129.57 97.3674 129.386 97.432 129.171C97.4918 128.946 97.4605 128.707 97.3449 128.505C97.2292 128.306 97.0395 128.162 96.8175 128.104C96.5956 128.046 96.3596 128.078 96.1615 128.194V128.194Z" fill="#E84B23"/>
<path d="M246.277 340.889L247.56 337.039C247.684 336.578 247.415 336.104 246.956 335.975C246.497 335.859 246.028 336.125 245.892 336.579L244.609 340.429C244.485 340.889 244.754 341.363 245.213 341.493C245.672 341.609 246.141 341.342 246.277 340.889Z" fill="#E84B23"/>
<path d="M206.986 254.475C207.507 257.281 208.833 259.875 210.801 261.941C211.569 262.749 212.791 261.525 212.024 260.717C210.272 258.86 209.1 256.53 208.655 254.016C208.524 253.558 208.051 253.289 207.591 253.412C207.137 253.547 206.87 254.016 206.986 254.476L206.986 254.475Z" fill="#D89D35"/>
<path d="M214.927 227.158C212.217 228.436 210.475 231.15 210.444 234.146C210.444 234.624 210.831 235.011 211.309 235.011C211.786 235.011 212.173 234.624 212.173 234.146C212.176 232.98 212.525 231.841 213.176 230.874C213.313 230.651 213.471 230.441 213.646 230.246C213.846 230.017 214.061 229.8 214.289 229.599C214.493 229.413 214.715 229.247 214.952 229.104C215.223 228.934 215.506 228.783 215.798 228.653C216.208 228.41 216.346 227.883 216.108 227.47C215.86 227.067 215.339 226.931 214.925 227.159L214.927 227.158Z" fill="#D89D35"/>
<path d="M176.325 224.392C177.504 222.736 178.607 221.029 179.633 219.271C179.874 218.859 179.735 218.329 179.322 218.088C178.91 217.847 178.38 217.986 178.139 218.398C177.114 220.154 176.011 221.861 174.831 223.519C174.592 223.932 174.731 224.46 175.142 224.702C175.556 224.93 176.076 224.794 176.325 224.392V224.392Z" fill="#D89D35"/>
<path d="M181.062 498.597C183.808 500.093 186.935 500.738 190.048 500.452C190.521 500.44 190.9 500.06 190.913 499.588C190.91 499.111 190.525 498.726 190.048 498.723C187.243 499.004 184.417 498.441 181.935 497.105C180.956 496.574 180.082 498.067 181.062 498.598L181.062 498.597Z" fill="#2976DF"/>
<path d="M214.402 391.707L226.396 397.665C227.389 398.159 228.266 396.667 227.269 396.172L215.275 390.213C214.282 389.719 213.404 391.211 214.402 391.707H214.402Z" fill="#2976DF"/>
<rect x="252.476" y="229.315" width="55.6658" height="100.707" rx="8.37346" fill="#2976DF"/>
<mask id="mask28_1_2007" style="mask-type:luminance" maskUnits="userSpaceOnUse" x="252" y="229" width="57" height="102">
<rect x="252.476" y="229.315" width="55.6658" height="100.707" rx="8.37346" fill="white"/>
</mask>
<g mask="url(#mask28_1_2007)">
<path d="M272.872 293.304C287.686 320.735 282.754 339.156 282.754 339.156H308.608L312.531 291.333H263.029" fill="#1665C4"/>
</g>
<rect x="259.636" y="239.478" width="14.9813" height="18.4783" rx="2.62315" fill="#589BF7"/>
<path d="M285.705 291.333C285.705 291.333 303.753 319.05 289.603 349.886" stroke="#3A3530" stroke-width="1.86497" stroke-linecap="round" stroke-linejoin="round"/>
<rect x="274.618" y="358.894" width="11.0869" height="180.106" fill="#589BF7"/>
<mask id="mask29_1_2007" style="mask-type:luminance" maskUnits="userSpaceOnUse" x="274" y="358" width="12" height="181">
<rect x="274.618" y="358.894" width="11.0869" height="180.106" fill="white"/>
</mask>
<g mask="url(#mask29_1_2007)">
<path d="M271.995 423.248C274.753 399.259 288.515 397.964 288.515 397.964L289.603 384.409L266.317 387.981" fill="#2976DF"/>
</g>
<rect x="270.72" y="380.375" width="18.8824" height="18.8824" rx="3.05609" fill="#F0F3FC"/>
<path fill-rule="evenodd" clip-rule="evenodd" d="M202.854 247.336C215.806 216.068 246.317 195.681 280.161 195.681C326.374 195.681 363.838 233.145 363.838 279.358C363.838 313.202 343.451 343.713 312.183 356.665C280.915 369.616 244.924 362.457 220.993 338.526C197.062 314.595 189.903 278.604 202.854 247.336ZM213.955 279.358C213.955 315.922 243.597 345.564 280.161 345.564C316.726 345.564 346.367 315.922 346.368 279.358C346.368 242.793 316.726 213.151 280.161 213.151C243.597 213.151 213.955 242.793 213.955 279.358Z" fill="#F0F3FC"/>
<mask id="mask30_1_2007" style="mask-type:luminance" maskUnits="userSpaceOnUse" x="196" y="195" width="168" height="169">
<path fill-rule="evenodd" clip-rule="evenodd" d="M280.161 195.681C246.317 195.681 215.806 216.068 202.854 247.336C189.903 278.604 197.062 314.595 220.993 338.526C244.924 362.457 280.915 369.616 312.183 356.665C343.451 343.713 363.838 313.202 363.838 279.358C363.838 233.145 326.374 195.681 280.161 195.681V195.681ZM280.161 345.564C243.597 345.564 213.955 315.922 213.955 279.358C213.955 242.793 243.597 213.151 280.161 213.151C316.726 213.151 346.368 242.793 346.368 279.358C346.367 315.922 316.726 345.564 280.161 345.564Z" fill="white"/>
</mask>
<g mask="url(#mask30_1_2007)">
<path d="M335.953 300.341C371.817 309.976 399.313 286.713 399.313 286.713L363.838 347.573L322.204 320.609" fill="#D6DCF2"/>
</g>
<rect x="248.319" y="276.665" width="64.2122" height="20.0951" rx="1.71461" fill="#9A7ED9"/>
<circle cx="285.705" cy="285.096" r="15.2447" fill="#6F4EB9"/>
<path d="M290.635 256.141L287.658 260.93C287.328 261.507 287.521 262.243 288.092 262.583C288.67 262.906 289.4 262.714 289.745 262.15L292.722 257.361C293.053 256.784 292.86 256.048 292.289 255.708C291.711 255.385 290.981 255.576 290.635 256.141Z" fill="#1665C4"/>
<path d="M283.693 465.13L282.498 466.326C282.044 466.805 282.044 467.556 282.498 468.035C282.725 468.261 283.032 468.389 283.352 468.39L283.674 468.347C283.875 468.291 284.059 468.184 284.207 468.036L285.402 466.841C285.856 466.361 285.856 465.611 285.402 465.132C285.175 464.905 284.868 464.778 284.548 464.777L284.227 464.82C284.025 464.876 283.841 464.983 283.693 465.131V465.13Z" fill="#2976DF"/>
</svg>
